<svg width="1478" height="1109" viewBox="0 0 1478 1109" fill="none" xmlns="http://www.w3.org/2000/svg">
<path d="M445.5 1109L18 731.965L1475 731.965L445.5 1109Z" fill="#EDF2F7"/>
<path d="M278.294 548.395C301.528 576.547 275.926 614.193 260.834 641.086C261.545 614.781 168.358 641.125 129.891 617.859C114.459 608.526 95.4609 589.627 95.4609 589.627L122.501 572.43L87.733 583.243C71.1531 576.622 54.7574 556.28 38.0136 536.088C23.1418 518.153 16.4028 494.187 5.58741 486.883C27.9142 489.928 124.126 485.811 124.126 485.811L146.286 516.288L146.967 491.102C167.472 494.221 191.709 501.654 212.359 516.457C225.21 525.669 231.823 540.372 239.617 544.33L240.101 526.42C245.811 527.789 268.166 536.124 278.294 548.395Z" fill="#E2E8F0"/>
<path d="M477.905 471.555C439.322 513.252 371.961 514.253 324.731 518.056C367.02 500.759 298.944 428.729 325.472 375.654C336.114 354.361 361.069 323.084 361.069 323.084L396.109 337.454L369.134 311.253C375.117 290.706 403.107 260.956 430.759 230.972C455.32 204.34 491.793 181.444 500.472 166C501.81 189.655 535.161 279.804 535.161 279.804L492.56 322.052L533.049 305.491C533.763 327.436 528.611 355.937 510.669 386.01C499.504 404.725 477.816 421.167 473.651 431.404L502.443 419.628C501.841 426.081 494.723 453.379 477.905 471.555Z" fill="#E2E8F0"/>
<path d="M380.62 482.293C381.84 533.216 311.02 579.744 272.468 610.821C264.124 577.605 186.021 562.172 164.493 511.01C155.856 490.485 151.415 454.698 151.415 454.698L194.59 443.018L148.519 441.992C136.392 424.778 135.93 388.166 134.971 351.604C134.12 319.13 146.971 281.923 141.556 266.455C162.792 281.299 268.714 320.785 268.714 320.785L266.846 374.502L288.621 339.059C307.855 353.149 327.459 375.124 337.083 405.874C343.072 425.009 337.827 449.004 342.821 458.297L358.305 433.093C363.242 437.727 380.088 460.095 380.62 482.293Z" fill="#CBD5E0"/>
<path d="M337.655 721H1072.44L1170 840H242L337.655 721Z" fill="#CBD5E0"/>
<path d="M337 721H1072V306C1072 294.954 1063.05 286 1052 286H357C345.954 286 337 294.954 337 306V721Z" fill="#2D3748"/>
<path d="M373 704H1037V320H373V704Z" fill="white"/>
<path d="M377.491 742H1039.53L1093 818H323L377.491 742Z" fill="#718096"/>
<path d="M242 839H1169V854H242V839Z" fill="#2D3748"/>
<path d="M153.531 880.539C159.81 883.483 179.267 883.519 188.21 883.168L199.189 903.478L192.995 904.845C189.727 905.566 180.19 911.568 176.48 908.49C171.842 904.643 159.455 907.377 151.714 909.086L123.328 915.352C121.038 913.151 115.532 907.005 111.827 900.029C108.122 893.053 113.241 886.005 116.264 883.353C126.07 881.189 147.252 877.595 153.531 880.539Z" fill="black"/>
<ellipse cx="219.294" cy="880.999" rx="20.0842" ry="12.6848" transform="rotate(123.959 219.294 880.999)" fill="#4A5568"/>
<path d="M416.206 788.358C432.479 781.693 450.97 790.39 456.213 807.175L459.651 818.182C464.877 834.914 454.705 852.544 437.603 856.394L273.994 893.22L261.076 851.899L416.206 788.358Z" fill="black"/>
<ellipse cx="429.733" cy="819.63" rx="27.2551" ry="17.2137" transform="rotate(-107.812 429.733 819.63)" fill="#2D3748"/>
<path d="M370.397 967.254C366.991 961.214 351.165 949.896 343.677 944.992L346.52 922.081L352.357 924.561C355.438 925.87 366.688 926.515 367.924 931.174C369.469 936.999 381.144 941.959 388.441 945.059C394.278 947.539 406.926 952.912 413.189 958.444C417.58 964.33 417.276 967.844 415.672 975.578C414.578 980.857 406.383 986.18 402.382 986.586C391.58 987.683 373.803 973.295 370.397 967.254Z" fill="black"/>
<ellipse cx="339.798" cy="928.364" rx="20.0842" ry="12.6848" transform="rotate(-77.2347 339.798 928.364)" fill="#4A5568"/>
<path d="M305.991 942.612C297.879 942.923 291.051 936.599 290.74 928.487V928.487C290.408 919.82 297.613 912.751 306.272 913.249L332.583 914.762C338.924 915.126 344.144 919.881 345.097 926.16V926.16C346.299 934.086 340.338 941.295 332.327 941.602L305.991 942.612Z" fill="#A0AEC0"/>
<path d="M200.433 904.735C192.321 905.046 185.493 898.722 185.182 890.61V890.61C184.85 881.943 192.055 874.875 200.714 875.373L227.025 876.885C233.366 877.25 238.586 882.004 239.538 888.284V888.284C240.741 896.21 234.78 903.419 226.769 903.726L200.433 904.735Z" fill="#A0AEC0"/>
<path d="M256.498 873.583C264.579 874.356 270.504 881.533 269.732 889.614V889.614C268.907 898.247 260.825 904.294 252.31 902.647L226.434 897.644C220.198 896.438 215.658 891.031 215.55 884.681V884.681C215.414 876.665 222.282 870.314 230.262 871.077L256.498 873.583Z" fill="#A0AEC0"/>
<path d="M118.54 849.143C99.9299 838.004 98.9257 811.406 116.643 798.896L129.314 789.948C139.438 782.799 152.916 782.612 163.235 789.476L320.017 893.771C331.571 901.456 336.346 916.063 331.563 929.089L329.733 934.074C323.249 951.731 302.303 959.135 286.164 949.475L118.54 849.143Z" fill="#2D3748"/>
<ellipse cx="140.199" cy="816.445" rx="27.2551" ry="19.2822" transform="rotate(-43.583 140.199 816.445)" fill="#4A5568"/>
<rect x="198.819" y="607.962" width="155.941" height="232.589" rx="30" fill="#CBD5E0"/>
<path d="M182.078 637.02C185.089 631.862 190.264 628.335 196.166 627.417V627.417C212.887 624.818 224.98 642.998 216.119 657.415L163.594 742.881C159.202 750.028 150.59 753.378 142.523 751.077V751.077C130.774 747.727 125.335 734.2 131.495 723.649L182.078 637.02Z" fill="#A0AEC0"/>
<path d="M355.261 661.175C349.894 652.093 352.905 640.379 361.987 635.011V635.011C371.404 629.445 383.564 632.91 388.633 642.604L431.195 723.996C434.714 730.726 433.254 738.981 427.641 744.096V744.096C419.806 751.235 407.389 749.371 401.995 740.246L355.261 661.175Z" fill="#A0AEC0"/>
<path d="M264.378 607.294C264.022 596.565 272.432 587.579 283.161 587.223V587.223C294.203 586.857 303.329 595.755 303.243 606.803L303.217 610.038C303.134 620.629 294.56 629.19 283.969 629.257V629.257C273.473 629.324 264.833 621.019 264.485 610.528L264.378 607.294Z" fill="#CBD5E0"/>
<ellipse cx="284.391" cy="551.763" rx="42.2825" ry="56.5529" fill="#F7FAFC"/>
<ellipse cx="236.151" cy="547.317" rx="7.92797" ry="11.0992" transform="rotate(-17.8773 236.151 547.317)" fill="#F7FAFC"/>
<ellipse cx="333.04" cy="545.821" rx="7.92797" ry="11.0992" transform="rotate(23.1686 333.04 545.821)" fill="#F7FAFC"/>
<path d="M265.663 637.056C252.044 628.468 258.087 620.473 255.092 608.845C223.95 599.773 209.964 606.338 188.896 622.201C174.576 632.984 158.63 657.531 158.63 657.531C158.63 657.531 145.89 674.822 138.158 691.067C128.036 712.336 188.896 723.68 188.896 723.68L199.582 685.097L195.489 793.123L358.026 800.858L361.727 689.481L381.81 716.28C381.81 716.28 444.083 725.991 417.75 685.097C391.418 644.202 373.234 609.273 358.026 607.403C345.821 605.503 324.96 605.707 315.153 607.402C311.773 625.112 315.345 632.827 307.417 637.056C300.741 640.617 288.07 651.184 265.663 637.056Z" fill="#D62F2F"/>
<path d="M138.259 752.257C130.223 747.188 127.273 736.894 131.405 728.338V728.338C136.27 718.263 148.841 714.696 158.272 720.715L222.398 761.639C229.643 766.263 232.743 775.273 229.877 783.376V783.376C225.925 794.55 212.624 799.166 202.599 792.842L138.259 752.257Z" fill="#A0AEC0"/>
<path d="M366.693 797.573C359.435 803.705 348.731 803.412 341.82 796.891V796.891C333.682 789.213 334.075 776.152 342.659 768.976L401.023 720.186C407.617 714.673 417.142 714.436 424.003 719.613V719.613C433.464 726.753 433.852 740.827 424.799 748.476L366.693 797.573Z" fill="#A0AEC0"/>
<path d="M343.985 812.273C338.118 817.344 329.38 817.205 323.678 811.949V811.949C316.962 805.76 317.155 795.097 324.09 789.155L387.001 735.248C392.224 730.772 399.815 730.4 405.451 734.345V734.345C413.496 739.976 414.093 751.674 406.664 758.095L343.985 812.273Z" fill="#CBD5E0"/>
<path d="M251.051 780.316C257.679 784.342 260.23 792.701 256.981 799.742V799.742C253.153 808.033 242.946 811.125 235.161 806.351L164.537 763.038C158.673 759.442 155.988 752.331 158.011 745.757V745.757C160.899 736.371 171.848 732.21 180.241 737.308L251.051 780.316Z" fill="#CBD5E0"/>
<path d="M174.551 759.114H397.505L372.053 855.035H201.76L174.551 759.114Z" fill="#EDF2F7"/>
<rect x="206.386" y="855.035" width="162.304" height="5.04571" fill="#718096"/>
<path d="M266.966 797.435H256.822L262.824 803.452L269.418 800.024L266.966 797.435Z" fill="#D62F2F"/>
<path d="M270.769 801.352L264.176 804.921L267.726 808.419L272.967 803.591L270.769 801.352Z" fill="#D62F2F"/>
<path d="M275.926 806.668L274.404 805.059L269.079 809.887L273.897 814.645L277.532 812.686L275.926 806.668Z" fill="#D62F2F"/>
<path d="M299.512 791.626L292.411 800.092L291.735 795.754L285.902 791.626L279.309 793.235L277.618 794.914L279.985 797.363L280.83 796.034L282.098 796.104L282.944 797.083L280.746 800.092L272.292 791.626H250.99L254.963 795.614H268.235L277.703 805.41L279.901 813.597L275.336 816.046L279.224 819.894L281.253 815.486H284.465C284.465 815.486 285.395 818.075 285.733 819.125C285.818 819.405 285.902 819.545 285.902 819.545L287.255 815.486H290.467L292.581 819.894L296.469 816.046L291.904 813.527L294.102 805.34L303.57 795.544H316.757L320.73 791.556H299.512V791.626ZM285.142 794.285L283.451 793.445L285.395 793.165L285.142 794.285Z" fill="#D62F2F"/>
<path d="M287.256 822.415H284.466L282.86 816.817L281.339 822.135L285.903 826.614L290.384 822.135L288.862 816.817L287.256 822.415Z" fill="#D62F2F"/>
<path d="M302.304 800.024L308.898 803.452L314.899 797.435H304.755L302.304 800.024Z" fill="#D62F2F"/>
<path d="M298.75 803.591L303.991 808.419L307.541 804.921L300.947 801.352L298.75 803.591Z" fill="#D62F2F"/>
<path d="M295.794 806.668L294.188 812.686L297.822 814.645L302.641 809.887L297.315 805.059L295.794 806.668Z" fill="#D62F2F"/>
<path d="M285.226 790.577L285.902 787.358L283.197 789.038L280.408 786.869L279.478 789.877L276.266 789.738L278.633 792.187L285.226 790.577Z" fill="#D62F2F"/>
<path d="M330.167 532.305C330.167 535.562 325.92 543.957 325.617 548.704C325.617 543.238 318.974 532.737 316.062 527.557C312.422 521.083 316.381 517.233 312.877 512.021C306.681 502.807 291.491 503.246 284.666 503.822C276.931 502.525 263.149 503.384 255.546 512.021C250.719 517.503 255.091 526.262 249.176 529.283C244.444 531.699 242.502 545.251 241.896 553.45V542.661C241.896 538.49 239.165 529.629 239.165 527.557C239.165 524.968 240.676 498.618 246.446 491.602C250.467 486.712 263.281 480.813 263.281 480.813C263.281 480.813 283.003 475.632 294.676 477.362C307.536 479.268 315.316 485.014 322.887 495.054C329.262 503.51 330.167 525.826 330.167 532.305Z" fill="#2D3748"/>
<path d="M284.666 477.012C294.13 477.74 288.609 495.83 284.666 503.868C283.149 500.228 279.752 491.674 278.296 486.578C276.84 481.482 269.802 480.661 266.921 480.206C268.589 479.902 275.202 476.284 284.666 477.012Z" fill="#4A5568"/>
<path d="M306.049 484.29C311.276 492.214 294.297 502.095 285.529 503.907C287.475 500.478 292.15 492.549 295.284 488.275C298.417 484 293.351 480.02 291.944 477.464C293.206 478.597 300.822 476.367 306.049 484.29Z" fill="#4A5568"/>
<path d="M244.622 537.071C245.987 544.048 248.262 563.462 248.262 563.462C248.262 563.462 252.812 576.505 255.087 580.297C257.362 584.089 261.338 584.18 265.552 583.482C269.859 582.769 270.258 577.576 274.428 576.699C274.425 576.7 274.424 576.7 274.424 576.7C274.424 576.7 281.976 574.382 283.752 574.382C286.062 574.382 293.308 576.657 293.308 576.657C297.238 577.643 296.681 581.406 299.678 583.482C313.755 593.236 318.683 562.994 321.973 545.716C322.443 543.248 322.883 539.346 322.883 539.346L325.613 545.716C325.613 545.716 327.982 562.622 325.613 573.017C322.947 584.717 317.978 590.211 311.508 600.317C308.824 604.51 308.172 607.745 304.228 610.782C299.004 614.806 287.848 614.878 287.848 614.878C287.848 614.878 274.146 616.943 267.372 612.602C263.023 609.816 261.002 604.564 258.727 602.592C258.727 602.592 252.924 596.602 250.082 592.127C246.066 585.804 244.594 581.655 242.802 574.382C240.293 564.197 241.892 547.536 241.892 547.536L244.622 537.071Z" fill="#4A5568"/>
<path d="M449.35 873.554C439.899 870.557 417.137 866.361 401.694 873.554C409.989 879.548 431.132 887.939 449.35 873.554Z" fill="#2D3748"/>
<path d="M450.177 872.993C450.177 872.993 439.393 878.5 425.072 878.5C410.751 878.5 399.7 872.993 399.7 872.993L406.664 918.101C407.417 922.977 411.614 926.575 416.547 926.575H434.154C439.156 926.575 443.388 922.879 444.063 917.923L450.177 872.993Z" fill="#D62F2F"/>
<path d="M448.807 873.071C438.942 869.043 416.43 865.791 401.151 873.071" stroke="#D62F2F" stroke-width="3" stroke-linecap="round" stroke-linejoin="round"/>
<path d="M447.336 886.724C457.628 885.653 471.467 888.41 444.498 908.005" stroke="#D62F2F" stroke-width="6" stroke-linecap="round"/>
<path d="M1266.82 167.264C1267.45 156.836 1259.16 148.035 1248.71 148.035V148.035C1238.4 148.035 1230.16 156.622 1230.59 166.927L1231.25 182.902L1232.61 208.581C1232.94 214.632 1236.8 219.922 1242.47 222.067V222.067C1245.78 223.322 1249.43 223.386 1252.78 222.249L1253.21 222.106C1259.58 219.949 1264 214.15 1264.41 207.438L1266.82 167.264Z" fill="#2D3748"/>
<rect width="61.9004" height="39.6584" rx="19.8292" transform="matrix(-1 8.74228e-08 8.74228e-08 1 1210.72 306.415)" fill="#2D3748"/>
<path d="M1258.76 215.199C1263.57 169.459 1227.71 129.625 1181.71 129.625V129.625C1136.72 129.625 1101.19 167.826 1104.44 212.703L1104.83 217.998L1108.48 257.276C1111.31 287.661 1133.51 312.706 1163.34 319.156V319.156C1172.58 321.153 1182.13 321.257 1191.41 319.461L1192.86 319.18C1226.19 312.729 1251.39 285.251 1254.94 251.486L1258.76 215.199Z" fill="#E2E8F0"/>
<path d="M1248.38 202.875C1252.13 163.599 1221.25 129.626 1181.8 129.626V129.626C1143.12 129.626 1112.51 162.324 1115.05 200.913L1115.85 212.956L1119.42 255.249C1121.58 280.834 1139.92 302.142 1164.9 308.089V308.089C1173.49 310.134 1182.43 310.24 1191.06 308.4L1192.37 308.12C1220.3 302.17 1241.13 278.794 1243.85 250.373L1248.38 202.875Z" fill="white"/>
<path d="M1227.08 133.613C1227.08 128.922 1223.64 124.938 1218.99 124.275C1205.82 122.391 1199.03 121.591 1183.53 121.139C1168.26 120.694 1159.09 121.545 1146.94 123.852C1142.36 124.723 1139.1 128.775 1139.1 133.437V133.437C1139.1 142.496 1145.29 150.367 1154.29 151.416C1167.76 152.988 1181.87 153.353 1183.4 153.389C1183.5 153.391 1183.57 153.39 1183.67 153.386C1185.17 153.322 1198.8 152.716 1212.03 151.187C1220.86 150.168 1227.08 142.503 1227.08 133.613V133.613Z" fill="#A0AEC0"/>
<rect width="34.4873" height="42.0475" transform="matrix(-1 8.74228e-08 8.74228e-08 1 1200.11 103.823)" fill="#E2E8F0"/>
<path d="M1274.22 165.881C1274.65 157.82 1268.23 151.048 1260.15 151.048V151.048C1251.23 151.048 1244.55 159.241 1246.36 167.98L1248.89 180.259C1249.22 181.875 1249.39 183.521 1249.39 185.17L1249.39 208.878C1249.39 211.751 1250.41 214.532 1252.26 216.73L1252.94 217.546C1255.88 221.033 1260.7 222.279 1264.95 220.649V220.649C1268.9 219.138 1271.58 215.447 1271.81 211.228L1274.22 165.881Z" fill="#A0AEC0"/>
<path d="M1227.08 129.985C1208.04 127.631 1201.91 144.71 1183.53 144.25C1165.16 143.79 1155.61 126.982 1139.1 129.985V129.985C1139.1 141.715 1147.33 151.758 1159.02 152.73C1170.95 153.722 1182.15 153.967 1183.41 153.992C1183.5 153.994 1183.56 153.993 1183.65 153.99C1184.88 153.945 1195.56 153.54 1207.13 152.552C1218.74 151.561 1227.08 141.638 1227.08 129.985V129.985Z" fill="#4A5568"/>
<path d="M1128.55 161.937C1129.04 152.743 1121.71 145.021 1112.5 145.021V145.021C1103.4 145.021 1096.12 152.577 1096.45 161.674L1097.11 179.888L1098.39 207.146C1098.63 212.271 1101.77 216.811 1106.49 218.837V218.837C1109.7 220.22 1113.33 220.29 1116.6 219.033L1116.98 218.884C1122.3 216.84 1125.91 211.865 1126.21 206.182L1128.55 161.937Z" fill="#2D3748"/>
<path d="M1120.64 163.915C1121.1 155.204 1114.16 147.89 1105.44 147.89V147.89C1096.82 147.89 1089.91 155.048 1090.23 163.666L1090.86 181.002L1092.07 206.915C1092.29 211.767 1095.27 216.065 1099.73 217.987V217.987C1102.78 219.303 1106.23 219.369 1109.33 218.173L1109.69 218.032C1114.72 216.093 1118.14 211.382 1118.42 206.003L1120.64 163.915Z" fill="#A0AEC0"/>
<path d="M1234.75 780.502C1241.24 788.554 1253.17 789.465 1260.8 782.491V782.491C1268.33 775.609 1268.61 763.839 1261.41 756.613L1251.22 746.39L1234.16 729.677C1229.82 725.429 1223.37 724.179 1217.76 726.499V726.499C1214.64 727.79 1212.04 730.086 1210.37 733.024L1210.15 733.401C1206.83 739.26 1207.42 746.555 1211.65 751.802L1234.75 780.502Z" fill="#A0AEC0"/>
<path d="M1122.27 777.287C1124.89 789.787 1137.69 797.328 1149.9 793.566V793.566C1161.87 789.877 1168.24 776.845 1163.8 765.132L1162.08 760.602L1156.58 746.85C1153.52 739.188 1145.9 734.342 1137.66 734.814V734.814C1134.72 734.983 1131.85 735.827 1129.29 737.282L1128.9 737.5C1120.92 742.027 1116.79 751.194 1118.67 760.172L1122.27 777.287Z" fill="#A0AEC0"/>
<rect x="1160.35" y="86.126" width="43.5915" height="35.212" rx="17.606" fill="#4A5568"/>
<path d="M1135.26 42.9512C1135.17 40.2918 1137.3 38.084 1139.96 38.084V38.084C1142.6 38.084 1144.72 40.2593 1144.66 42.8991L1144.41 52.934L1143.99 66.0791C1143.95 67.3506 1143.29 68.5197 1142.21 69.2018V69.2018C1141.01 69.9643 1139.49 70.0015 1138.25 69.2987L1138.14 69.2328C1136.91 68.5359 1136.13 67.2535 1136.08 65.8443L1135.26 42.9512Z" fill="#4A5568"/>
<path d="M1139.74 46.9261C1137.33 21.7659 1157.11 1.91153e-06 1182.39 4.12115e-06V4.12115e-06C1207.16 6.2869e-06 1226.77 20.9477 1225.14 45.6672L1224.64 53.2853L1222.35 80.2681C1220.97 96.6645 1209.21 110.317 1193.2 114.121V114.121C1187.71 115.427 1181.99 115.495 1176.47 114.32L1175.63 114.142C1157.73 110.335 1144.37 95.3575 1142.63 77.1436L1139.74 46.9261Z" fill="#CBD5E0"/>
<path d="M1141.27 46.0675C1139.52 26.5041 1154.93 9.65527 1174.58 9.65528V9.65528C1193.85 9.65528 1209.14 25.9099 1207.95 45.1493L1207.41 53.9659L1205.49 78.2445C1204.5 90.807 1195.62 101.344 1183.41 104.453V104.453C1178.88 105.604 1174.15 105.664 1169.6 104.627L1168.93 104.474C1155.27 101.362 1145.18 89.8031 1143.93 75.8515L1141.27 46.0675Z" fill="white"/>
<rect x="1136.85" y="33.2559" width="55.9204" height="39.4945" rx="19.7473" fill="#2D3748"/>
<path d="M1146.81 53.5393C1146.81 42.6331 1155.65 33.792 1166.56 33.792L1176.82 33.792C1187.73 33.792 1196.57 42.6332 1196.57 53.5393V53.5393C1196.57 64.4454 1187.73 73.2865 1176.82 73.2865L1166.56 73.2865C1155.65 73.2865 1146.81 64.4454 1146.81 53.5393V53.5393Z" fill="#4A5568"/>
<path d="M1156.35 49.039C1156.35 47.8401 1155.91 46.6903 1155.13 45.8426C1154.34 44.9948 1153.28 44.5186 1152.17 44.5186C1151.06 44.5186 1150 44.9948 1149.21 45.8426C1148.43 46.6903 1147.99 47.8401 1147.99 49.039L1152.17 49.039L1156.35 49.039Z" fill="white"/>
<path d="M1178.05 49.04C1178.05 48.4464 1177.94 47.8585 1177.73 47.3101C1177.52 46.7616 1177.21 46.2633 1176.82 45.8435C1176.44 45.4238 1175.97 45.0908 1175.47 44.8636C1174.96 44.6365 1174.42 44.5195 1173.87 44.5195C1173.32 44.5195 1172.77 44.6365 1172.27 44.8636C1171.76 45.0908 1171.3 45.4238 1170.91 45.8435C1170.52 46.2633 1170.21 46.7616 1170 47.3101C1169.79 47.8585 1169.68 48.4464 1169.68 49.04L1173.87 49.04L1178.05 49.04Z" fill="white"/>
<path d="M1210.88 47.6002C1210.48 42.1717 1214.77 37.5459 1220.22 37.5459V37.5459C1225.58 37.5459 1229.84 42.0348 1229.57 47.3864L1229.32 52.3161L1228.69 61.8707C1228.47 65.2067 1226.21 68.0607 1223.02 69.0418V69.0418C1221.56 69.4906 1220 69.5138 1218.52 69.1086L1218.32 69.0527C1214.74 68.069 1212.16 64.9395 1211.89 61.237L1210.88 47.6002Z" fill="#4A5568"/>
<path d="M1154.44 57.9297C1160.71 62.7809 1164.23 62.2752 1170.51 57.9297" stroke="#F7FAFC" stroke-width="5" stroke-linecap="round"/>
<path d="M1108.91 190.067C1113.85 185.392 1114.15 177.255 1109.57 172.198V172.198C1105.09 167.24 1097.68 167.198 1093.12 172.106L1029.08 241.139C1025.72 244.763 1025.74 250.621 1029.12 254.208V254.208C1032.34 257.617 1037.48 257.766 1040.87 254.547L1108.91 190.067Z" fill="#CBD5E0"/>
<path d="M1046.18 237.581C1041.92 231.946 1034.1 231.326 1029.03 236.221V236.221C1024.07 241.014 1023.71 249.215 1028.24 254.41L1087.06 321.946C1090.41 325.789 1096.05 325.967 1099.65 322.344V322.344C1103.08 318.898 1103.46 313.212 1100.52 309.329L1046.18 237.581Z" fill="#CBD5E0"/>
<path d="M1272.14 537.638C1274.23 527.588 1267.49 518.419 1257.3 517.444V517.444C1247.27 516.485 1237.82 523.841 1236.3 533.786L1209.16 711.602C1208.32 717.096 1212.18 721.899 1217.74 722.289L1224.21 722.743C1229.48 723.113 1234.42 719.37 1235.49 714.19L1272.14 537.638Z" fill="#CBD5E0"/>
<path d="M1171.13 406.197C1172.44 391.525 1161.12 379.694 1146.48 380.431V380.431C1132.26 381.148 1120.59 393.468 1120.68 407.682L1121.42 528.983C1121.49 539.629 1130.11 547.636 1140.76 546.948V546.948C1150.89 546.294 1159.38 537.985 1160.28 527.839L1171.13 406.197Z" fill="#E2E8F0"/>
<path d="M1159.12 577.428C1159.87 566.786 1151.6 558.315 1140.98 558.85V558.85C1130.58 559.374 1122.04 568.339 1122.02 578.733L1121.85 716.329C1121.84 721.845 1126.31 726.003 1131.83 725.617L1139.45 725.084C1144.69 724.717 1149.05 720.353 1149.42 715.094L1159.12 577.428Z" fill="#CBD5E0"/>
<path d="M1277.6 173.567C1272.83 169.524 1265.07 169.876 1260.62 174.338V174.338C1256.27 178.699 1256.8 185.266 1261.8 188.894L1319.83 230.991C1323.54 233.682 1329.1 233.202 1332.26 229.917V229.917C1335.27 226.792 1335.05 222.212 1331.75 219.423L1277.6 173.567Z" fill="#CBD5E0"/>
<path d="M1242.08 401.633C1238.6 388.383 1224.82 381.39 1212.14 386.442V386.442C1199.86 391.336 1193.56 405.595 1198.22 417.95L1233.29 510.83C1236.8 520.128 1246.99 524.533 1256.2 520.728V520.728C1264.93 517.117 1269.79 507.316 1267.38 498.146L1242.08 401.633Z" fill="#E2E8F0"/>
<path d="M1331.83 239.358C1335.26 233.635 1333.3 226.059 1327.52 222.711V222.711C1321.84 219.425 1314.71 221.507 1311.69 227.332L1267.21 313.069C1264.98 317.367 1266.61 322.757 1270.85 325.088V325.088C1274.88 327.303 1279.84 325.964 1282.21 322.025L1331.83 239.358Z" fill="#E2E8F0"/>
<path d="M1133.04 390.458C1130.58 400.7 1137.7 410.764 1148.18 411.855L1151.06 412.155C1159.72 413.057 1167.29 406.323 1167.4 397.614V397.614L1167.34 393.299C1167.25 386.002 1162.36 379.638 1155.33 377.666V377.666C1153.63 377.187 1151.86 376.986 1150.09 377.073L1149.13 377.119C1141.4 377.496 1134.84 382.929 1133.04 390.458V390.458Z" fill="#A0AEC0"/>
<path d="M1204.19 409.743C1212.72 415.927 1224.74 413.191 1229.75 403.926L1231.13 401.375C1235.27 393.714 1231.94 384.149 1223.93 380.721V380.721L1219.93 379.124C1213.15 376.423 1205.4 378.51 1200.89 384.25V384.25C1199.8 385.643 1198.93 387.205 1198.34 388.874L1198.02 389.771C1195.41 397.062 1197.93 405.197 1204.19 409.743V409.743Z" fill="#A0AEC0"/>
<path d="M1334.06 220.79C1332.85 216.434 1328.28 213.567 1323.83 214.385L1322.98 214.542C1318.75 215.321 1316.12 219.159 1316.93 223.353V223.353C1317.92 228.432 1323.43 231.728 1328.35 230.173L1329.16 229.915C1333.05 228.682 1335.15 224.769 1334.06 220.79V220.79Z" fill="#4A5568"/>
<path d="M1276.03 327.697C1274.82 323.341 1270.25 320.474 1265.8 321.293L1264.95 321.449C1260.73 322.228 1258.09 326.067 1258.9 330.26V330.26C1259.89 335.339 1265.4 338.636 1270.32 337.08L1271.13 336.822C1275.03 335.59 1277.12 331.676 1276.03 327.697V327.697Z" fill="#4A5568"/>
<rect width="16.8015" height="16.6126" rx="8.30629" transform="matrix(0.953869 0.300222 0.300222 -0.953869 1089.25 331.269)" fill="#4A5568"/>
<rect width="16.8015" height="16.6126" rx="8.30629" transform="matrix(0.953869 0.300222 0.300222 -0.953869 1026.98 250.909)" fill="#4A5568"/>
<rect width="16.8015" height="16.6126" rx="8.30629" transform="matrix(0.953869 0.300222 0.300222 -0.953869 1125.42 737.447)" fill="#2D3748"/>
<path d="M1121.07 351.61C1120.91 349.447 1118.88 347.843 1116.73 348.172V348.172C1114.67 348.486 1113.35 350.441 1113.82 352.47L1115.81 361.012C1116.17 362.579 1117.72 363.619 1119.31 363.362L1119.39 363.349C1120.83 363.115 1121.84 361.844 1121.73 360.389L1121.07 351.61Z" fill="#CBD5E0"/>
<path d="M1110.63 367.984C1110.87 365.798 1109.22 363.748 1107.02 363.512V363.512C1104.88 363.283 1103.09 364.867 1103.05 367.019L1102.65 387.213C1102.62 388.82 1103.88 390.233 1105.48 390.38V390.38C1107 390.52 1108.29 389.463 1108.46 387.952L1110.63 367.984Z" fill="#CBD5E0"/>
<path d="M1101.8 367.771C1102.34 365.618 1100.97 363.322 1098.81 362.765V362.765C1096.71 362.224 1094.7 363.548 1094.37 365.695L1091.31 385.348C1091.06 386.953 1092.13 388.552 1093.7 388.933V388.933C1095.2 389.295 1096.64 388.427 1097.01 386.939L1101.8 367.771Z" fill="#CBD5E0"/>
<path d="M1095.27 365.989C1095.81 363.836 1094.44 361.541 1092.28 360.984V360.984C1090.18 360.442 1088.17 361.766 1087.84 363.914L1084.78 383.567C1084.53 385.172 1085.6 386.77 1087.17 387.151V387.151C1088.67 387.514 1090.11 386.646 1090.48 385.158L1095.27 365.989Z" fill="#CBD5E0"/>
<path d="M1089.23 363.09C1089.77 360.937 1088.39 358.642 1086.23 358.085V358.085C1084.13 357.543 1082.13 358.867 1081.79 361.015L1078.74 380.667C1078.49 382.272 1079.55 383.871 1081.13 384.252V384.252C1082.63 384.614 1084.06 383.746 1084.44 382.258L1089.23 363.09Z" fill="#CBD5E0"/>
<path d="M1112.96 355.417C1112.16 361.197 1106.68 364.674 1101.17 362.893L1093.92 360.55C1087.79 358.57 1084.23 351.696 1086.17 345.589L1087.51 341.361L1089.94 334.187C1091.68 329.069 1096.48 325.922 1101.81 326.404V326.404C1103.52 326.558 1105.2 327.08 1106.75 327.937L1106.99 328.07C1112.36 331.046 1115.46 337.2 1114.63 343.243L1112.96 355.417Z" fill="#CBD5E0"/>
<path d="M1167.9 196.278L1157.8 196.278L1163.78 203.84L1170.34 199.532L1167.9 196.278Z" fill="#D62F2F"/>
<path d="M1171.69 201.202L1165.12 205.686L1168.66 210.083L1173.88 204.016L1171.69 201.202Z" fill="#D62F2F"/>
<path d="M1176.82 207.882L1175.31 205.859L1170.01 211.926L1174.8 217.905L1178.42 215.443L1176.82 207.882Z" fill="#D62F2F"/>
<path d="M1200.3 188.978L1193.23 199.617L1192.56 194.165L1186.75 188.978L1180.19 191L1178.5 193.11L1180.86 196.187L1181.7 194.517L1182.96 194.605L1183.8 195.836L1181.62 199.617L1173.2 188.978L1152 188.978L1155.95 193.989L1169.16 193.989L1178.59 206.299L1180.78 216.586L1176.23 219.664L1180.1 224.499L1182.12 218.96L1185.32 218.96C1185.32 218.96 1186.24 222.213 1186.58 223.532C1186.67 223.884 1186.75 224.06 1186.75 224.06L1188.1 218.96L1191.29 218.96L1193.4 224.499L1197.27 219.664L1192.72 216.498L1194.91 206.211L1204.33 193.901L1217.46 193.901L1221.42 188.89L1200.3 188.89L1200.3 188.978ZM1185.99 192.319L1184.31 191.264L1186.24 190.912L1185.99 192.319Z" fill="#D62F2F"/>
<path d="M1188.1 227.665L1185.32 227.665L1183.72 220.631L1182.21 227.313L1186.75 232.94L1191.21 227.313L1189.7 220.631L1188.1 227.665Z" fill="#D62F2F"/>
<path d="M1203.07 199.532L1209.63 203.84L1215.61 196.278L1205.51 196.278L1203.07 199.532Z" fill="#D62F2F"/>
<path d="M1199.54 204.016L1204.75 210.083L1208.29 205.686L1201.72 201.202L1199.54 204.016Z" fill="#D62F2F"/>
<path d="M1196.59 207.882L1194.99 215.443L1198.61 217.905L1203.41 211.926L1198.11 205.859L1196.59 207.882Z" fill="#D62F2F"/>
<path d="M1186.08 187.66L1186.75 183.615L1184.06 185.726L1181.28 183L1180.36 186.781L1177.16 186.605L1179.52 189.682L1186.08 187.66Z" fill="#D62F2F"/>
<ellipse rx="25.6145" ry="34.655" transform="matrix(-1 8.74228e-08 8.74228e-08 1 1212.23 370.53)" fill="#4A5568"/>
<circle r="15.0674" transform="matrix(-1 8.74228e-08 8.74228e-08 1 1139.4 551.84)" fill="#2D3748"/>
<circle r="15.0674" transform="matrix(-1 8.74228e-08 8.74228e-08 1 1260.33 521.508)" fill="#2D3748"/>
<ellipse rx="25.6145" ry="34.655" transform="matrix(-1 8.74228e-08 8.74228e-08 1 1153.97 370.53)" fill="#4A5568"/>
<path d="M1165.78 390.252C1173.47 403.585 1192.72 403.585 1200.42 390.252L1214.06 366.628C1221.75 353.295 1212.13 336.628 1196.74 336.628L1169.46 336.628C1154.06 336.628 1144.44 353.295 1152.14 366.628L1165.78 390.252Z" fill="white"/>
<path d="M1230.45 723.726C1229.63 719.284 1225.31 716.038 1220.82 716.476L1219.95 716.56C1215.67 716.977 1212.72 720.577 1213.17 724.825V724.825C1213.72 729.969 1218.94 733.722 1223.97 732.59L1224.8 732.403C1228.79 731.505 1231.21 727.785 1230.45 723.726V723.726Z" fill="#2D3748"/>
<path d="M1252.13 376.236C1253.47 374.521 1253.01 372.202 1251.13 371.179V371.179C1249.31 370.184 1246.87 370.816 1245.73 372.578L1235.34 388.664C1234.49 389.981 1234.91 391.624 1236.29 392.348V392.348C1237.6 393.036 1239.32 392.653 1240.25 391.468L1252.13 376.236Z" fill="#CBD5E0"/>
<path d="M1247.53 372.937C1249.05 371.379 1248.88 369.022 1247.17 367.784V367.784C1245.5 366.577 1243.03 366.917 1241.68 368.538L1227.66 385.476C1226.66 386.682 1226.87 388.364 1228.13 389.243V389.243C1229.32 390.079 1231.06 389.894 1232.1 388.818L1247.53 372.937Z" fill="#CBD5E0"/>
<path d="M1239.53 368.15C1241.04 366.592 1240.88 364.235 1239.17 362.997V362.997C1237.5 361.79 1235.02 362.13 1233.68 363.751L1219.53 380.831C1218.53 382.036 1218.74 383.719 1220 384.597V384.597C1221.19 385.433 1222.93 385.247 1223.97 384.171L1239.53 368.15Z" fill="#CBD5E0"/>
<path d="M1233.36 362.92C1234.88 361.367 1234.72 359.008 1233.01 357.771V357.771C1231.34 356.565 1228.87 356.907 1227.53 358.527L1214.68 374.092C1213.69 375.3 1213.9 376.983 1215.15 377.864V377.864C1216.35 378.701 1218.08 378.52 1219.14 377.447L1233.36 362.92Z" fill="#CBD5E0"/>
<path d="M1239.68 346.104C1241.93 346.777 1244.07 345.463 1244.31 343.26V343.26C1244.55 341.132 1242.91 339.035 1240.7 338.631L1226.31 336.001C1224.64 335.695 1223.18 336.742 1223.02 338.357V338.357C1222.87 339.887 1223.95 341.411 1225.51 341.876L1239.68 346.104Z" fill="#CBD5E0"/>
<path d="M1262.59 362.531C1259.46 367.196 1252.6 368.522 1247.86 365.376L1240.54 360.508C1234.9 356.765 1234.16 349.411 1238.93 344.533L1241.44 341.966L1246.29 337.206C1250.47 333.098 1257.07 331.825 1262.56 334.065V334.065C1264.19 334.731 1265.65 335.679 1266.86 336.858L1267.05 337.045C1271.58 341.462 1272.25 348.11 1268.7 353.409L1262.59 362.531Z" fill="#CBD5E0"/>
<path d="M1403.71 761.301C1404.89 756.929 1403.02 752.261 1398.89 750.385C1369.54 737.028 1321.33 734.588 1285.24 750.472C1281.04 752.323 1279 757.015 1280.13 761.47L1302.01 848.072C1331.37 860.313 1348.43 861.292 1380.22 848.072L1403.71 761.301Z" fill="#D62F2F"/>
<path d="M1284.67 758.988C1284.67 765.748 1310.4 771.229 1342.13 771.229C1373.87 771.229 1399.59 765.748 1399.59 758.988C1399.59 752.228 1373.87 743.687 1342.13 743.687C1310.4 743.687 1284.67 752.228 1284.67 758.988Z" fill="#4A5568"/>
<path d="M1359.84 758.54C1357.44 699.254 1355.26 599.194 1413.24 569.441" stroke="#718096" stroke-width="3"/>
<path d="M1337.01 758.277C1337.17 716.783 1327.87 633.742 1289.46 633.528" stroke="#718096" stroke-width="3"/>
<path d="M1347.74 759.305C1336.09 678.683 1319.78 508.622 1347.74 473.355C1375.7 438.087 1386.93 430.859 1389.05 431.653" stroke="#718096" stroke-width="3"/>
<path d="M1302.33 619.322C1320.82 628.145 1321.72 652.622 1324.27 666.974C1316.08 655.168 1287.66 678.008 1264.57 673.777C1255.31 672.08 1241.52 666.698 1241.52 666.698L1246.94 654.758L1236.33 665.088C1227.48 664.779 1214.28 658.341 1200.99 652.026C1189.19 646.417 1178.73 636.834 1172 635.306C1182.03 633.112 1219.69 615.997 1219.69 615.997L1238.49 626.023L1230.65 614.719C1239.97 612.848 1252.19 612.301 1265.32 615.601C1273.5 617.654 1280.92 623.139 1285.35 623.66L1279.78 615.622C1282.53 615.324 1294.28 615.477 1302.33 619.322Z" fill="#A0AEC0"/>
<path d="M1345.54 599.811C1340.75 621.231 1356.43 637.179 1366.39 649.287C1362.13 634.295 1402.43 628.591 1413.89 606.573C1418.49 597.739 1423.03 582.598 1423.03 582.598L1409.88 578.751L1425.07 577.19C1430.53 569.662 1433.83 554.272 1437.3 538.89C1440.37 525.229 1439.37 509.915 1442.47 503.285C1434.23 510.041 1396.12 529.225 1396.12 529.225L1392.11 551.743L1388.02 537.39C1380.51 543.78 1372.19 553.491 1366.39 566.644C1362.78 574.829 1362.43 584.779 1359.99 588.805L1357.09 578.598C1355.07 580.665 1347.62 590.474 1345.54 599.811Z" fill="#4A5568"/>
<path d="M1288 511.349C1285.52 541.771 1316.47 561.138 1333.1 575.099C1338.2 554.371 1374.84 536.044 1386.71 503.1C1391.47 489.884 1394.86 468.084 1394.86 468.084L1375.37 466.199L1396.68 460.19C1402.93 448.534 1404.52 426.71 1406.33 404.858C1407.95 385.449 1403.42 364.832 1406.5 355C1396.14 366.315 1345.75 402.204 1345.75 402.204L1344.59 433.926L1335.87 415.403C1326.46 426.035 1316.58 441.398 1310.98 460.809C1307.49 472.889 1309.01 486.542 1306.36 492.652L1300.16 479.48C1297.7 482.815 1289.08 498.088 1288 511.349Z" fill="#A0AEC0"/>
</svg>
